<?xml version="1.0" encoding="UTF-8"?>
<svg width="32px" height="21px" viewBox="0 0 32 21" version="1.1" xmlns="http://www.w3.org/2000/svg" xmlns:xlink="http://www.w3.org/1999/xlink">
    <!-- Generator: Sketch 42 (36781) - http://www.bohemiancoding.com/sketch -->
    <title>Your_Icon</title>
    <desc>Created with Sketch.</desc>
    <defs></defs>
    <g id="MVP" stroke="none" stroke-width="1" fill="none" fill-rule="evenodd">
        <g id="Main-Menu" transform="translate(-32.000000, -507.000000)" fill-rule="nonzero" fill="#FFFFFF">
            <g id="List-Item-(Large)-Copy-4" transform="translate(20.000000, 489.000000)">
                <g id="Trending">
                    <g id="Action-(Full)-Copy">
                        <g id="Action-(Full)">
                            <g id="Action-(Half)">
                                <g id="1488496523_radio" transform="translate(12.000000, 18.000000)">
                                    <g id="Your_Icon">
                                        <ellipse id="Oval" cx="16" cy="10.5" rx="3.392" ry="3.27352941"></ellipse>
                                        <path d="M26.624,20.8147059 C26.112,20.8147059 25.664,20.3823529 25.664,19.8882353 C25.664,19.6411765 25.792,19.3941176 25.92,19.2088235 C30.912,14.3911765 30.912,6.54705882 25.92,1.72941176 C25.536,1.35882353 25.6,0.741176471 25.984,0.432352941 C26.368,0.123529412 26.944,0.123529412 27.264,0.432352941 C33.024,5.99117647 33.024,14.9470588 27.264,20.5058824 C27.072,20.6911765 26.88,20.8147059 26.624,20.8147059 Z" id="Shape"></path>
                                        <path d="M23.68,18.2205882 C23.168,18.2205882 22.72,17.7882353 22.72,17.2941176 C22.72,17.0470588 22.848,16.8 22.976,16.6147059 C26.496,13.2176471 26.496,7.78235294 22.976,4.38529412 L22.976,4.38529412 C22.656,3.95294118 22.784,3.39705882 23.232,3.08823529 C23.552,2.90294118 24,2.90294118 24.32,3.08823529 C28.544,7.16470588 28.544,13.8352941 24.32,17.9117647 C24.128,18.0970588 23.936,18.1588235 23.68,18.2205882 Z" id="Shape"></path>
                                        <path d="M20.608,15.8117647 C20.096,15.8117647 19.648,15.3794118 19.648,14.8852941 C19.648,14.6382353 19.776,14.3911765 19.904,14.2058824 C22.016,12.1676471 22.016,8.83235294 19.904,6.79411765 C19.52,6.42352941 19.584,5.80588235 19.968,5.49705882 C20.352,5.18823529 20.928,5.18823529 21.248,5.49705882 C24.128,8.27647059 24.128,12.7852941 21.248,15.5029412 L21.248,15.5029412 C21.12,15.6882353 20.864,15.8117647 20.608,15.8117647 Z" id="Shape"></path>
                                        <path d="M5.376,20.8147059 C5.888,20.8147059 6.336,20.3823529 6.336,19.8882353 C6.336,19.6411765 6.208,19.3941176 6.08,19.2088235 C1.088,14.3911765 1.088,6.54705882 6.08,1.72941176 C6.464,1.35882353 6.4,0.741176471 6.016,0.432352941 C5.632,0.123529412 5.056,0.123529412 4.736,0.432352941 C-1.024,5.99117647 -1.024,14.9470588 4.736,20.5058824 C4.928,20.6911765 5.12,20.8147059 5.376,20.8147059 Z" id="Shape"></path>
                                        <path d="M8.32,18.2205882 C8.832,18.2205882 9.28,17.7882353 9.28,17.2941176 C9.28,17.0470588 9.152,16.8 9.024,16.6147059 C5.504,13.2176471 5.504,7.78235294 9.024,4.38529412 L9.024,4.38529412 C9.344,3.95294118 9.216,3.39705882 8.768,3.08823529 C8.448,2.90294118 8,2.90294118 7.68,3.08823529 C3.456,7.16470588 3.456,13.8352941 7.68,17.9117647 C7.872,18.0970588 8.064,18.1588235 8.32,18.2205882 Z" id="Shape"></path>
                                        <path d="M11.392,15.8117647 C11.904,15.8117647 12.352,15.3794118 12.352,14.8852941 C12.352,14.6382353 12.224,14.3911765 12.096,14.2058824 C9.984,12.1676471 9.984,8.83235294 12.096,6.79411765 C12.48,6.42352941 12.416,5.80588235 12.032,5.49705882 C11.648,5.18823529 11.072,5.18823529 10.752,5.49705882 C7.872,8.27647059 7.872,12.7852941 10.752,15.5029412 L10.752,15.5029412 C10.88,15.6882353 11.136,15.8117647 11.392,15.8117647 Z" id="Shape"></path>
                                    </g>
                                </g>
                            </g>
                        </g>
                    </g>
                </g>
            </g>
        </g>
    </g>
</svg>