<?xml version="1.0" encoding="UTF-8"?>
<svg width="28px" height="28px" viewBox="0 0 28 28" version="1.1" xmlns="http://www.w3.org/2000/svg" xmlns:xlink="http://www.w3.org/1999/xlink">
    <!-- Generator: Sketch 42 (36781) - http://www.bohemiancoding.com/sketch -->
    <title>Shape</title>
    <desc>Created with Sketch.</desc>
    <defs></defs>
    <g id="MVP" stroke="none" stroke-width="1" fill="none" fill-rule="evenodd">
        <g id="Main-Menu" transform="translate(-34.000000, -239.000000)" fill-rule="nonzero" fill="#FFFFFF">
            <g id="List-Item-(Large)" transform="translate(20.000000, 225.000000)">
                <g id="Trending">
                    <g id="Action-(Full)-Copy">
                        <g id="Action-(Full)">
                            <g id="Action-(Half)">
                                <g id="1495222811_search-01" transform="translate(14.000000, 14.000000)">
                                    <g id="Layer_1">
                                        <path d="M27.3595851,23.9875274 L18.9638907,15.6840934 C20.0238525,14.0579298 20.5922559,12.1637647 20.5922559,10.1831375 C20.5922559,7.46312134 19.5214051,4.90587535 17.5763268,2.98278698 C15.6318708,1.05908323 13.046211,0 10.2962835,0 C7.54635603,0 4.96038508,1.05908323 3.01592906,2.98247929 C1.07085082,4.90587535 0,7.46312134 0,10.1831375 C0,12.9031537 1.07085082,15.4603997 3.01561795,17.3834881 C4.96038508,19.3068841 7.5457338,20.3662751 10.2959724,20.3662751 C12.2989176,20.3662751 14.214129,19.8041179 15.8580499,18.7558039 L24.2537444,27.059238 C25.1077494,27.9038584 26.5052689,27.9038584 27.359274,27.059238 L27.359274,27.059238 C28.2135902,26.2143099 28.2135902,24.8321478 27.3595851,23.9875274 Z M5.07487465,15.3471683 C3.68015524,13.9677754 2.91201733,12.1339184 2.91201733,10.1831375 C2.91201733,8.23266439 3.68015524,6.39849962 5.07487465,5.0191068 C6.46959406,3.63971397 8.32382732,2.88001714 10.2962835,2.88001714 C12.2687397,2.88001714 14.122973,3.63971397 15.5176924,5.0191068 C16.9124118,6.39849962 17.6802386,8.23235669 17.6802386,10.1831375 C17.6802386,12.1339184 16.9121007,13.9677754 15.5176924,15.3471683 C14.122973,16.7265611 12.2687397,17.4859502 10.2962835,17.4859502 C8.32382732,17.4859502 6.46959406,16.7262534 5.07487465,15.3471683 Z" id="Shape"></path>
                                    </g>
                                </g>
                            </g>
                        </g>
                    </g>
                </g>
            </g>
        </g>
    </g>
</svg>