<?xml version="1.0" encoding="UTF-8"?>
<svg width="22px" height="31px" viewBox="0 0 22 31" version="1.1" xmlns="http://www.w3.org/2000/svg" xmlns:xlink="http://www.w3.org/1999/xlink">
    <!-- Generator: Sketch 42 (36781) - http://www.bohemiancoding.com/sketch -->
    <title>Shape</title>
    <desc>Created with Sketch.</desc>
    <defs></defs>
    <g id="MVP" stroke="none" stroke-width="1" fill="none" fill-rule="evenodd">
        <g id="Main-Menu" transform="translate(-37.000000, -303.000000)" fill-rule="nonzero" fill="#FFFFFF">
            <g id="List-Item-(Large)-Copy" transform="translate(20.000000, 291.000000)">
                <g id="Trending">
                    <g id="Action-(Full)-Copy">
                        <g id="Action-(Full)">
                            <g id="Action-(Half)">
                                <g id="1488313036_Location_Icon" transform="translate(17.000000, 12.000000)">
                                    <g id="Group">
                                        <g id="Layer_1" transform="translate(0.132325, 0.695312)">
                                            <path d="M10.4999657,0 C4.70130727,0 0,4.70272486 0,10.502894 C0,18.2929096 10.4999657,30.1722393 10.4999657,30.1722393 C10.4999657,30.1722393 21,18.292841 21,10.502894 C21,4.70272486 16.2985556,0 10.4999657,0 Z M10.4999657,14.9343104 C8.05288837,14.9343104 6.06968724,12.9506378 6.06968724,10.5028254 C6.06968724,8.05501296 8.05288837,6.07134031 10.4999657,6.07134031 C12.9470431,6.07134031 14.9302442,8.05501296 14.9302442,10.5028254 C14.9302442,12.9506378 12.9470431,14.9343104 10.4999657,14.9343104 Z" id="Shape"></path>
                                        </g>
                                    </g>
                                </g>
                            </g>
                        </g>
                    </g>
                </g>
            </g>
        </g>
    </g>
</svg>