<?xml version="1.0" encoding="UTF-8"?>
<svg width="28px" height="28px" viewBox="0 0 28 28" version="1.1" xmlns="http://www.w3.org/2000/svg" xmlns:xlink="http://www.w3.org/1999/xlink">
    <!-- Generator: Sketch 42 (36781) - http://www.bohemiancoding.com/sketch -->
    <title>Shape</title>
    <desc>Created with Sketch.</desc>
    <defs></defs>
    <g id="MVP" stroke="none" stroke-width="1" fill="none" fill-rule="evenodd">
        <g id="Main-Menu" transform="translate(-34.000000, -371.000000)" fill-rule="nonzero" fill="#FFFFFF">
            <g id="List-Item-(Large)-Copy-2" transform="translate(20.000000, 357.000000)">
                <g id="Trending">
                    <g id="Action-(Full)-Copy">
                        <g id="Action-(Full)">
                            <g id="Action-(Half)">
                                <g id="1488312959_Clock_Icon" transform="translate(14.000000, 14.000000)">
                                    <g id="Layer_1">
                                        <g id="Layer_2">
                                            <path d="M23.8459016,4.12171053 C18.4083934,-1.33276316 9.59160656,-1.33276316 4.15409836,4.12171053 C-1.2824918,9.57710526 -1.2824918,18.4228947 4.15409836,23.8782895 C9.59160656,29.3327632 18.4083934,29.3327632 23.8459016,23.8782895 C29.2824918,18.4228947 29.2824918,9.57710526 23.8459016,4.12171053 Z M19.6651803,20.8443421 C18.5405902,20.1931579 12.4476066,16.6710526 12.4476066,16.6710526 L12.3934426,16.6710526 L12.3934426,5.06578947 C12.3934426,3.6575 14.5967213,3.60684211 14.5967213,5.06578947 L14.5967213,15.3475 C14.5967213,15.3475 19.3989508,18.0821053 20.7668197,18.9221974 C22.1347803,19.7621053 20.7897705,21.4964474 19.6651803,20.8443421 Z" id="Shape"></path>
                                        </g>
                                    </g>
                                </g>
                            </g>
                        </g>
                    </g>
                </g>
            </g>
        </g>
    </g>
</svg>